<svg width="1340" height="1060" viewBox="0 0 1340 1060" fill="none" xmlns="http://www.w3.org/2000/svg">
<g clip-path="url(#clip0_1_2)">
<path d="M749.47 103.42L736.82 87.97C736.16 87.17 735.06 86.88 734.1 87.26L715.48 94.52C714.52 94.9 713.91 95.84 713.96 96.88L715.11 116.83C715.17 117.87 715.89 118.74 716.9 119.01L736.22 124.08C737.22 124.34 738.28 123.93 738.84 123.06L749.64 106.24C750.21 105.36 750.14 104.23 749.48 103.42H749.47Z" fill="#FFCECE"/>
<path d="M145.691 924.248L127.131 916.457C126.165 916.055 125.048 916.316 124.373 917.108L111.213 932.364C110.538 933.155 110.438 934.28 110.973 935.183L121.414 952.411C121.958 953.309 123.01 953.744 124.038 953.508L143.64 948.905C144.654 948.665 145.404 947.799 145.493 946.76L147.174 926.68C147.266 925.627 146.67 924.653 145.7 924.243L145.691 924.248Z" fill="#FFCECE"/>
<path d="M312.26 676.62L328.81 673.09C329.37 672.97 329.91 673.33 330.03 673.88C330.08 674.1 330.05 674.33 329.96 674.53L322.7 689.82C322.55 690.13 322.56 690.49 322.74 690.79L331.21 705.44C331.49 705.93 331.33 706.56 330.84 706.84C330.64 706.95 330.42 707 330.19 706.97L313.4 704.78C313.07 704.73 312.73 704.85 312.5 705.1L301.2 717.69C300.83 718.12 300.18 718.16 299.75 717.79C299.58 717.63 299.47 717.42 299.43 717.19L296.32 700.56C296.26 700.23 296.04 699.95 295.73 699.81L280.25 692.94C279.73 692.71 279.49 692.11 279.71 691.58C279.8 691.37 279.96 691.2 280.16 691.09L295.01 683C295.31 682.84 295.51 682.54 295.54 682.2L297.3 665.37C297.35 664.81 297.86 664.39 298.42 664.45C298.65 664.47 298.87 664.57 299.03 664.73L311.32 676.35C311.57 676.6 311.92 676.7 312.27 676.62H312.26Z" fill="#FFCECE"/>
<path d="M633.18 307.07L643.23 303.37C643.56 303.24 643.94 303.41 644.06 303.74C644.11 303.88 644.11 304.03 644.06 304.17L640.89 314.4C640.83 314.6 640.87 314.82 641 314.99L647.63 323.4C647.85 323.69 647.8 324.1 647.51 324.32C647.4 324.4 647.26 324.45 647.12 324.46L636.41 324.6C636.2 324.6 636 324.71 635.88 324.89L629.92 333.79C629.72 334.09 629.32 334.17 629.02 333.97C628.91 333.89 628.82 333.77 628.77 333.64L625.32 323.5C625.25 323.3 625.08 323.14 624.88 323.09L614.57 320.18C614.22 320.1 614.01 319.74 614.09 319.39C614.13 319.23 614.22 319.11 614.34 319.03L622.92 312.62C623.09 312.49 623.19 312.29 623.18 312.07L622.77 301.37C622.75 301.01 623.03 300.71 623.39 300.69C623.54 300.69 623.68 300.73 623.8 300.81L632.55 306.99C632.73 307.12 632.97 307.15 633.18 307.07Z" fill="#FFCECE"/>
<path d="M959 1010.23C958.86 1008.74 958.64 1007.26 958.33 1005.8C958.17 1004.9 957.75 1004.07 957.13 1003.4C956.4 1002.77 955.52 1002.34 954.58 1002.13C953.43 1001.83 951.83 1001.48 949.78 1001.09C948.81 1000.91 948.31 1000.36 948.28 999.44C948.24 999.01 948.4 998.59 948.7 998.29C949 997.99 949.39 997.79 949.81 997.75C951.39 997.61 952.97 997.39 954.53 997.06C955.45 996.9 956.3 996.47 956.99 995.83C957.6 995.11 958.01 994.23 958.16 993.29C958.4 992.17 958.68 990.62 958.98 988.65C959.13 987.65 959.68 987.15 960.63 987.15C961.65 987.15 962.23 987.66 962.32 988.69C962.44 990.16 962.63 991.62 962.92 993.06C963.07 993.95 963.49 994.77 964.12 995.42C964.87 996.04 965.76 996.47 966.71 996.67C967.87 996.98 969.47 997.33 971.51 997.74C972.51 997.95 973.01 998.51 973.01 999.43C973.01 1000.35 972.45 1000.9 971.32 1001.08C969.35 1001.41 967.83 1001.72 966.75 1002C965.86 1002.18 965.04 1002.61 964.39 1003.24C963.81 1003.95 963.43 1004.78 963.26 1005.68C963 1006.75 962.68 1008.25 962.3 1010.17C962.1 1011.19 961.54 1011.71 960.61 1011.71C959.64 1011.71 959.1 1011.21 959 1010.21V1010.23Z" fill="#FFCECE"/>
<path d="M132.7 649.99C132.58 648.75 132.39 647.51 132.14 646.29C132.01 645.54 131.66 644.85 131.15 644.29C130.54 643.76 129.81 643.4 129.02 643.23C128.06 642.97 126.72 642.68 125.02 642.36C124.3 642.31 123.75 641.7 123.77 640.98C123.74 640.63 123.87 640.28 124.12 640.04C124.37 639.78 124.7 639.61 125.06 639.57C126.38 639.46 127.69 639.26 129 638.99C129.77 638.86 130.48 638.5 131.05 637.97C131.56 637.37 131.9 636.64 132.03 635.86C132.23 634.92 132.46 633.63 132.72 631.99C132.86 631.22 133.6 630.72 134.37 630.86C134.95 630.97 135.41 631.43 135.51 632.02C135.61 633.25 135.78 634.46 136.02 635.67C136.14 636.41 136.47 637.09 136.99 637.63C137.62 638.14 138.36 638.5 139.15 638.67C140.12 638.93 141.46 639.23 143.17 639.57C143.9 639.62 144.46 640.25 144.42 640.98C144.42 641.76 143.95 642.21 143.01 642.36C141.37 642.64 140.1 642.9 139.2 643.13C138.46 643.28 137.78 643.64 137.23 644.17C136.75 644.75 136.42 645.46 136.29 646.2C136.08 647.1 135.82 648.34 135.49 649.97C135.32 650.82 134.85 651.25 134.08 651.25C133.4 651.32 132.8 650.82 132.73 650.14C132.73 650.09 132.73 650.04 132.73 649.99H132.7Z" fill="#FFCECE"/>
<path d="M137.63 101.97C137.51 100.73 137.32 99.49 137.07 98.27C136.94 97.53 136.59 96.83 136.08 96.27C135.47 95.74 134.74 95.38 133.95 95.21C133.01 94.96 131.65 94.66 129.95 94.35C129.23 94.3 128.68 93.69 128.7 92.97C128.68 92.62 128.8 92.28 129.05 92.03C129.3 91.77 129.63 91.6 129.99 91.56C131.32 91.46 132.64 91.28 133.94 91.02C134.71 90.88 135.42 90.53 135.99 89.99C136.5 89.39 136.84 88.66 136.97 87.88C137.17 86.94 137.4 85.65 137.66 84.01C137.67 83.3 138.26 82.74 138.97 82.76H139.04C139.73 82.68 140.37 83.17 140.45 83.86V84.04C140.55 85.27 140.72 86.48 140.96 87.69C141.08 88.41 141.42 89.08 141.92 89.61C142.55 90.12 143.29 90.48 144.08 90.65C145.05 90.9 146.39 91.2 148.1 91.55C148.83 91.6 149.39 92.23 149.35 92.96C149.35 93.72 148.88 94.19 147.94 94.34C146.3 94.61 145.03 94.87 144.13 95.11C143.39 95.26 142.71 95.62 142.16 96.15C141.68 96.74 141.36 97.44 141.22 98.18C141.01 99.08 140.75 100.32 140.42 101.95C140.25 102.8 139.78 103.23 139.01 103.23C138.33 103.3 137.72 102.81 137.65 102.12V101.97H137.63Z" fill="#FFCECE"/>
<path d="M952.64 142C952.53 140.76 952.34 139.53 952.09 138.31C951.96 137.56 951.61 136.87 951.1 136.31C950.49 135.78 949.76 135.42 948.97 135.25C948.01 135 946.67 134.71 944.97 134.39C944.25 134.34 943.7 133.73 943.72 133.01C943.7 132.66 943.83 132.32 944.07 132.07C944.32 131.81 944.65 131.64 945.01 131.6C946.33 131.49 947.64 131.29 948.95 131.03C949.72 130.89 950.43 130.54 951 130.01C951.51 129.41 951.85 128.68 951.98 127.9C952.18 126.96 952.41 125.67 952.67 124.03C952.81 123.26 953.55 122.76 954.32 122.9C954.9 123.01 955.36 123.47 955.46 124.06C955.56 125.29 955.73 126.5 955.97 127.71C956.09 128.45 956.44 129.14 956.96 129.68C957.58 130.2 958.33 130.56 959.12 130.72C960.09 130.97 961.43 131.28 963.14 131.62C963.97 131.79 964.39 132.26 964.39 133.03C964.39 133.8 963.92 134.26 962.98 134.41C961.34 134.69 960.07 134.95 959.17 135.18C958.43 135.33 957.75 135.69 957.2 136.22C956.72 136.81 956.4 137.51 956.26 138.25C956.05 139.15 955.79 140.4 955.46 142.02C955.29 142.87 954.82 143.3 954.05 143.3C953.37 143.4 952.74 142.94 952.64 142.26C952.64 142.18 952.64 142.1 952.64 142.03V142Z" fill="#FFCECE"/>
<path d="M990.16 549.6C989.75 549.19 989.32 548.72 988.89 548.22C986.82 545.81 984.99 543.21 983.42 540.44C982.05 538.06 981.04 535.49 980.43 532.81C979.89 530.51 979.94 528.12 980.57 525.84C980.98 524.33 981.67 522.9 982.62 521.65C983.46 520.53 984.52 519.59 985.73 518.88C986.88 518.21 988.14 517.78 989.45 517.6C990.75 517.43 992.07 517.53 993.33 517.89C994.8 518.25 996.11 519.08 997.07 520.25C997.95 521.35 998.55 522.64 998.83 524.02C999.8 523.01 1000.99 522.23 1002.31 521.76C1003.74 521.28 1005.28 521.27 1006.71 521.73C1007.98 522.08 1009.16 522.7 1010.17 523.54C1011.19 524.38 1012.04 525.42 1012.66 526.58C1013.32 527.81 1013.72 529.17 1013.84 530.57C1013.98 532.13 1013.82 533.7 1013.37 535.21C1012.7 537.47 1011.47 539.54 1009.81 541.21C1007.88 543.16 1005.67 544.81 1003.25 546.11C1000.46 547.63 997.53 548.88 994.5 549.83C993.87 550.03 993.27 550.2 992.69 550.33C992.24 550.46 991.76 550.48 991.3 550.38C990.85 550.22 990.46 549.94 990.15 549.57L990.16 549.6Z" fill="#FFCECE"/>
<path d="M542.77 739.73C542.34 739.52 541.89 739.26 541.42 739.01C539.18 737.71 537.07 736.19 535.12 734.49C533.42 733.02 531.96 731.31 530.77 729.41C529.74 727.78 529.13 725.92 529 724C528.92 722.72 529.08 721.45 529.47 720.23C529.82 719.14 530.38 718.13 531.12 717.26C531.82 716.44 532.68 715.77 533.65 715.28C534.61 714.8 535.65 714.52 536.72 714.46C537.95 714.35 539.18 714.63 540.23 715.27C541.2 715.88 542 716.71 542.59 717.69C543.07 716.65 543.78 715.73 544.67 715.02C545.64 714.27 546.83 713.85 548.05 713.82C549.12 713.75 550.19 713.91 551.2 714.29C552.21 714.66 553.15 715.23 553.94 715.97C554.78 716.75 555.45 717.69 555.92 718.73C556.44 719.9 556.74 721.15 556.8 722.43C556.89 724.35 556.5 726.27 555.66 728.01C554.7 730.04 553.44 731.9 551.92 733.55C550.18 735.47 548.25 737.22 546.18 738.77C545.75 739.1 545.33 739.38 544.92 739.64C544.61 739.86 544.25 740.01 543.87 740.05C543.48 740.05 543.1 739.94 542.76 739.74L542.77 739.73Z" fill="#FFCECE"/>
<path d="M1244.81 941.41C1244.34 941.05 1243.87 940.66 1243.36 940.22C1240.98 938.11 1238.82 935.78 1236.89 933.25C1235.21 931.08 1233.86 928.67 1232.9 926.1C1232.06 923.89 1231.78 921.51 1232.09 919.17C1232.29 917.61 1232.79 916.11 1233.55 914.74C1234.23 913.52 1235.15 912.44 1236.26 911.58C1237.3 910.76 1238.5 910.16 1239.78 909.81C1241.04 909.46 1242.37 909.38 1243.66 909.57C1245.16 909.73 1246.57 910.37 1247.68 911.39C1248.69 912.36 1249.46 913.55 1249.93 914.87C1250.75 913.73 1251.83 912.81 1253.08 912.16C1254.43 911.49 1255.95 911.27 1257.43 911.53C1258.73 911.71 1259.98 912.16 1261.1 912.85C1262.23 913.55 1263.21 914.46 1263.98 915.53C1264.8 916.66 1265.38 917.94 1265.69 919.3C1266.04 920.83 1266.09 922.41 1265.85 923.96C1265.49 926.29 1264.56 928.5 1263.14 930.38C1261.49 932.58 1259.53 934.51 1257.31 936.13C1254.75 938.01 1252.02 939.65 1249.15 941.01C1248.55 941.29 1247.98 941.54 1247.43 941.75C1246.57 942.21 1245.52 942.06 1244.82 941.38V941.4L1244.81 941.41Z" fill="#FFCECE"/>
<path d="M1045.04 770.09C1045.71 770.18 1046.4 770.18 1047.07 770.09C1047.67 769.94 1048.3 769.94 1048.9 770.09C1049.22 770.16 1049.49 770.37 1049.64 770.66C1049.77 770.96 1049.78 771.3 1049.68 771.6C1049.6 771.85 1049.49 772.09 1049.36 772.31C1049.2 772.59 1049.01 772.84 1048.8 773.08C1047.81 774.24 1046.66 775.25 1045.37 776.07C1042.81 777.71 1039.83 778.57 1036.79 778.56C1035.24 778.56 1033.71 778.32 1032.23 777.87C1030.18 777.28 1028.26 776.29 1026.57 774.97C1023.37 772.42 1021.37 768.67 1021.01 764.6C1020.82 762.45 1021.06 760.29 1021.7 758.23C1022.3 756.23 1023.29 754.36 1024.63 752.75C1025.94 751.14 1027.56 749.8 1029.38 748.8C1031.23 747.8 1033.26 747.19 1035.35 747.01C1035.62 746.99 1035.88 746.99 1036.15 747.01C1036.38 747.02 1036.6 747.06 1036.82 747.13C1037.18 747.22 1037.49 747.46 1037.66 747.79C1037.82 748.1 1037.84 748.47 1037.73 748.8C1037.65 749.05 1037.54 749.29 1037.39 749.51C1037.22 749.76 1037.02 750 1036.81 750.22C1036.46 750.57 1036.15 750.96 1035.89 751.39C1035.57 751.91 1035.29 752.45 1035.05 753.01C1034.79 753.6 1034.56 754.21 1034.38 754.83C1033.87 756.42 1033.66 758.1 1033.76 759.77C1033.86 761.26 1034.29 762.71 1035.01 764.01C1035.75 765.33 1036.77 766.47 1037.99 767.36C1040.08 768.85 1042.51 769.79 1045.06 770.1L1045.04 770.09Z" fill="#FFCECE"/>
<path d="M420.08 182.8C420.75 182.89 421.44 182.89 422.11 182.8C422.71 182.65 423.34 182.65 423.94 182.8C424.26 182.88 424.52 183.09 424.66 183.38C424.8 183.69 424.81 184.03 424.7 184.35C424.62 184.6 424.51 184.84 424.38 185.06C424.22 185.34 424.03 185.59 423.82 185.83C422.83 186.99 421.68 188 420.39 188.82C416.48 191.32 411.68 191.98 407.25 190.63C405.18 190.04 403.25 189.05 401.56 187.72C398.36 185.17 396.36 181.42 396 177.35C395.81 175.2 396.05 173.04 396.69 170.98C397.29 168.97 398.3 167.09 399.64 165.48C400.97 163.88 402.6 162.54 404.42 161.55C406.27 160.55 408.3 159.94 410.39 159.76C410.66 159.74 410.92 159.74 411.19 159.76C411.42 159.77 411.64 159.81 411.86 159.88C412.22 159.97 412.53 160.21 412.7 160.54C412.86 160.85 412.88 161.22 412.77 161.55C412.69 161.8 412.58 162.04 412.43 162.26C412.26 162.51 412.06 162.75 411.85 162.97C411.5 163.33 411.19 163.73 410.93 164.16C410.61 164.68 410.33 165.22 410.09 165.78C409.83 166.37 409.6 166.98 409.42 167.6C408.91 169.19 408.7 170.87 408.8 172.54C408.9 174.03 409.33 175.48 410.05 176.78C410.79 178.1 411.81 179.24 413.03 180.13C414.43 181.13 415.99 181.89 417.64 182.37C418.44 182.59 419.25 182.74 420.08 182.83V182.8Z" fill="#FFCECE"/>
<path d="M1180.7 104.55C1176.6 104.63 1173.34 108.02 1173.42 112.12C1173.5 116.22 1176.89 119.48 1180.99 119.4C1185.09 119.32 1188.35 115.93 1188.27 111.83C1188.19 107.73 1184.8 104.47 1180.7 104.55Z" fill="#FFCECE"/>
<path d="M1204.04 80.06C1192.38 80.29 1182.92 89.57 1182.47 101.23C1188.41 102.11 1192.5 107.64 1191.62 113.58C1191.36 115.3 1190.7 116.94 1189.67 118.35C1198.66 126.53 1212.58 125.87 1220.76 116.88C1228.94 107.89 1228.28 93.97 1219.29 85.79C1215.13 82.01 1209.67 79.96 1204.05 80.07H1204.03L1204.04 80.06Z" fill="#FFCECE"/>
<path d="M1232.54 91.3272C1234.12 91.2966 1235.37 89.9915 1235.34 88.4123C1235.31 86.8331 1234 85.5776 1232.43 85.6082C1230.85 85.6388 1229.59 86.9439 1229.62 88.5231C1229.65 90.1023 1230.96 91.3578 1232.54 91.3272Z" fill="#FFCECE"/>
<path d="M373.716 386.661C374.8 387.424 375.456 388.282 375.885 389.259C376.099 389.914 376.421 390.558 376.754 391.213C377.291 392.19 378.601 392.405 379.459 391.642L387.694 384.385C389.314 382.979 389.433 380.477 388.015 378.856L380.651 370.622C379.888 369.752 380.115 368.453 381.08 367.917C381.735 367.595 382.486 367.154 383.249 366.832C384.226 366.403 385.203 365.641 385.847 364.664C387.038 362.924 387.145 360.648 386.168 358.813C384.321 355.238 379.888 354.582 377.064 357.073C376.635 357.502 376.194 357.943 375.873 358.479C375.444 359.134 375.003 359.778 374.574 360.433C373.918 361.303 372.619 361.41 371.75 360.541L364.385 352.306C362.979 350.686 360.477 350.567 358.856 351.985L350.622 359.349C349.752 360.112 348.453 359.885 347.917 358.92C347.595 358.265 347.154 357.514 346.832 356.751C346.403 355.774 345.641 354.797 344.664 354.153C342.924 352.962 340.648 352.854 338.813 353.832C335.238 355.679 334.582 360.112 337.073 362.936C337.502 363.365 337.943 363.806 338.479 364.127C339.134 364.556 339.778 364.997 340.433 365.426C341.303 366.082 341.41 367.381 340.541 368.25L332.306 375.615C330.686 377.021 330.567 379.523 331.985 381.144L355.496 407.694C356.902 409.314 359.404 409.433 361.025 408.015L369.259 400.758C370.129 399.996 370.022 398.697 369.152 397.934C368.616 397.505 367.96 397.172 367.305 396.85C366.768 396.528 366.328 396.194 365.899 395.658C363.408 392.834 364.052 388.401 367.638 386.554C369.807 385.362 371.976 385.47 373.704 386.661H373.716Z" fill="#FFCECE"/>
<path d="M687.289 554.532C684.347 555.32 681.592 553.728 680.421 550.892L676.51 540.125C675.075 536.81 676.436 533.704 679.785 532.395C691.495 528.024 696.912 521.64 694.754 513.585L694.685 513.327C692.767 506.169 685.93 502.654 676.728 505.12C669.949 506.936 665.101 510.838 661.222 516.813C660.216 518.179 658.757 519.391 656.967 519.871C653.009 520.932 648.954 518.591 647.926 514.756C647.412 512.838 647.63 510.586 649.009 508.573C654.076 500.367 661.513 493.85 673.273 490.699C691.172 485.903 705.995 492.621 710.277 508.603L710.346 508.86C714.663 524.969 704.979 535.376 691.438 541.609L692.185 547.74C692.427 550.689 691 553.539 688.056 554.328L687.289 554.532Z" fill="#FFCECE"/>
<path d="M698.98 569.191C700.056 573.206 697.673 577.336 693.661 578.411C689.641 579.488 685.516 577.103 684.44 573.087C683.363 569.071 685.745 564.946 689.764 563.869C693.777 562.795 697.904 565.176 698.98 569.191Z" fill="#FFCECE"/>
<path d="M491.637 928.033C491.403 928.061 490.896 928.158 490.519 928.238L489.824 928.391L489.179 928.294C488.329 928.175 486.265 928.169 485.421 928.289C484.331 928.442 483.356 928.676 482.609 928.949L482.141 929.119L481.058 929.057C479.558 928.966 478.298 929.062 476.872 929.375C474.796 929.836 472.583 930.928 471.055 932.242L470.61 932.629L470.017 932.623C469.161 932.612 468.551 932.788 467.598 933.311C466.481 933.926 465.54 934.722 463.749 936.565C462.141 938.22 461.217 939.085 460.578 939.534C460.002 939.932 459.238 940.734 458.787 941.411C458.371 942.031 457.806 943.174 457.504 944.016C457.384 944.341 457.19 944.767 457.071 944.966C456.603 945.723 456.283 946.491 456.129 947.219C455.97 947.975 456.061 948.629 456.403 949.255L456.586 949.585L456.346 950.085C456.215 950.37 456.084 950.757 456.044 950.979C455.953 951.507 456.01 952.469 456.158 952.986C456.494 954.147 457.316 955.569 458.228 956.558C458.525 956.883 458.548 956.928 458.684 957.503C458.998 958.788 459.5 959.71 460.413 960.671C461.604 961.917 462.99 962.781 464.986 963.504C465.768 963.782 467.074 964.129 467.986 964.3L468.551 964.402L468.745 964.812C468.876 965.091 469.081 965.369 469.395 965.711C469.8 966.143 469.851 966.223 469.851 966.416C469.851 966.535 469.891 966.769 469.942 966.939C469.994 967.116 470.039 967.508 470.045 967.849C470.057 968.395 470.068 968.475 470.239 968.799C470.627 969.556 471.248 970.136 472.452 970.881C472.834 971.114 473.41 971.507 473.735 971.757C475.623 973.202 477.505 974.101 479.586 974.556C480.567 974.766 480.727 974.783 482.786 974.84C485.067 974.908 486.077 974.823 488.495 974.356C489.071 974.248 489.55 974.163 489.556 974.174C489.567 974.186 489.704 974.453 489.863 974.772C490.605 976.251 491.523 977.411 492.652 978.287C493.091 978.628 493.217 978.765 493.502 979.225C493.964 979.959 495.481 982.587 495.869 983.321C496.81 985.113 497.409 986.301 497.568 986.705C498.144 988.167 498.954 989.157 500.004 989.674C500.631 989.987 501.036 990.038 501.789 989.896C502.291 989.8 502.467 989.709 502.667 989.441C502.77 989.31 502.787 989.208 502.781 988.764C502.77 988.15 502.65 987.718 502.005 985.937C501.589 984.788 501.35 984.026 501.395 983.981C501.407 983.964 501.92 984.066 502.53 984.197C503.597 984.43 503.699 984.441 504.925 984.481C505.633 984.498 506.579 984.561 507.036 984.612C508.085 984.732 508.878 984.669 510.446 984.345C513.252 983.77 514.815 983.173 516.218 982.126C516.645 981.808 517.421 981.046 517.74 980.625C518.083 980.175 518.425 979.453 518.505 979.026C518.556 978.753 518.613 978.64 518.824 978.401C519.143 978.054 519.32 977.684 519.434 977.11C519.548 976.563 519.548 976.376 519.44 975.887C519.389 975.676 519.343 975.449 519.326 975.38C519.297 975.261 519.32 975.261 520.341 975.227C522.748 975.147 524.413 974.476 525.884 973.003C527.823 971.052 528.861 968.009 528.976 963.953C529.01 962.65 528.884 959.823 528.73 958.441C528.439 955.813 527.744 953.635 526.837 952.52C526.603 952.236 526.517 952.065 526.335 951.496C525.748 949.676 524.55 947.89 523.535 947.315L523.181 947.116L523.147 946.747C523.067 945.933 522.993 945.478 522.867 945.057C522.451 943.681 521.79 942.617 520.643 941.485C519.965 940.814 519.428 940.387 518.607 939.87C518.105 939.557 518.088 939.54 517.974 939.21C517.814 938.732 517.324 938.01 516.765 937.43C516.503 937.156 516.126 936.701 515.927 936.423C514.107 933.852 510.822 931.923 506.431 930.848C505.832 930.701 505.148 930.49 504.794 930.336C503.927 929.978 503.049 929.711 502.08 929.512C501.019 929.301 500.289 929.227 499.165 929.227H498.27L497.734 928.977C497.038 928.647 496.137 928.346 495.299 928.169C494.723 928.044 494.454 928.021 493.348 928.004C492.641 927.993 491.871 928.004 491.637 928.033Z" fill="#FFCECE"/>
<path d="M103.896 301.893C97.423 306.288 93.3274 313.178 92.5623 320.975C92.0559 326.128 93.2481 331.644 95.8299 336.104C97.5301 339.037 100.385 341.845 104.299 344.432C105.771 345.406 106.815 345.996 109.795 347.552C115.217 350.386 116.323 351.002 118.194 352.212C121.08 354.083 122.893 355.682 124.851 358.082C125.381 358.736 125.713 358.99 126.225 359.161C126.582 359.277 127.06 359.316 127.474 359.269C127.755 359.23 128.001 359.095 136.226 354.367C142.405 350.813 144.762 349.439 144.966 349.266C145.599 348.715 145.941 347.791 145.796 346.991C145.772 346.84 145.601 346.342 145.425 345.882C143.88 341.845 143.359 337.957 143.498 331.535C143.513 330.903 143.566 329.145 143.62 327.626C143.731 324.332 143.736 323.397 143.647 321.858C143.37 317.103 142.364 313.187 140.659 310.222C138.473 306.425 135.057 303.05 131.201 300.861C128.229 299.177 124.836 298.064 121.432 297.65C118.67 297.319 115.643 297.462 112.947 298.046C109.735 298.741 106.536 300.101 103.896 301.893Z" fill="#FFCECE"/>
<path d="M128.654 362.043C127.833 362.722 127.835 363.99 128.656 364.661C128.987 364.936 129.482 365.089 129.899 365.047L130.208 365.019L139.282 359.78L148.356 354.541L148.521 354.289C149.332 353.018 148.406 351.475 146.913 351.611L146.613 351.64L137.742 356.755C132.863 359.565 128.772 361.948 128.654 362.043Z" fill="#FFCECE"/>
<path d="M131.456 367.432C131.227 367.68 131.047 368.216 131.048 368.613C131.054 368.946 131.078 369.035 131.289 369.4C131.497 369.76 131.568 369.835 131.839 369.994C132.179 370.202 132.45 370.265 132.877 370.252C133.146 370.24 133.216 370.206 135.18 369.107L137.212 367.968L137.413 368.174C137.692 368.466 138.436 369.036 138.817 369.111C138.995 369.145 139.335 369.161 139.572 369.141L140 369.107L143.619 367.017L147.239 364.927L147.483 364.574C147.619 364.379 147.773 364.085 147.827 363.916C147.953 363.549 147.751 362.651 147.644 362.274L147.563 361.992L149.461 360.862C151.251 359.794 151.362 359.723 151.53 359.489C151.742 359.188 151.861 358.736 151.832 358.341C151.806 357.924 151.485 357.369 151.138 357.138C150.829 356.925 150.4 356.803 150.026 356.813L149.744 356.825L140.664 362.054C134.652 365.518 131.538 367.336 131.456 367.432Z" fill="#FFCECE"/>
<path d="M1012.61 289.678L1011.62 286.001C1003.9 281.524 994.574 279.817 985.258 281.812C984.653 281.907 984.066 282.03 983.478 282.188C978.888 283.418 975.33 286.589 973.459 290.575C969.671 288.117 964.915 287.196 960.23 288.451C959.757 288.578 959.3 288.723 958.85 288.888C949.762 291.824 942.536 297.966 938.091 305.704L939.076 309.38L934.246 312.363L948.319 364.885L981.539 348.103L983.677 349.782L994.182 346.967L995.195 344.444L1032.35 342.368L1018.28 289.846L1012.61 289.678ZM971.908 337.793C965.264 339.781 959.455 343.145 954.658 347.492L943.934 306.502C947.407 300.871 952.864 296.425 959.63 294.303C963.94 293.452 968.114 293.735 971.957 294.946L982.931 336.303C979.782 336.212 976.296 336.606 972.825 337.536C972.499 337.623 972.175 337.716 971.857 337.812L971.908 337.793ZM1017.9 330.424C1011.84 329.108 1005.13 329.1 998.443 330.683C998.147 330.756 997.872 330.824 997.594 330.899C994.128 331.828 990.917 333.228 988.006 335.01L977.132 293.441C979.752 290.594 983.193 288.288 987.185 286.925C994.216 285.351 1001.15 286.483 1006.97 289.629L1017.89 330.432L1017.9 330.424Z" fill="#FFCECE"/>
<path d="M821.148 794.392C817.39 795.155 814.797 798.373 814.613 802.047C814.513 802.067 814.432 802.057 814.331 802.078C809.894 802.979 807.02 807.33 807.924 811.781C808.047 812.386 808.243 812.964 808.496 813.503C805.133 815.761 803.288 819.891 804.143 824.102C804.465 825.691 805.167 827.085 806.079 828.291C803.416 830.644 802.022 834.288 802.782 838.033C803.634 842.231 806.931 845.317 810.884 846.09C810.889 846.693 810.946 847.298 811.069 847.904C812.088 852.922 816.96 856.16 821.963 855.145C822.479 855.04 822.969 854.875 823.441 854.687C825.378 858.036 829.251 859.967 833.249 859.155C838.253 858.14 841.476 853.258 840.457 848.239L830.832 800.829C829.929 796.377 825.586 793.491 821.148 794.392ZM875.193 823.332C874.433 819.587 871.728 816.775 868.358 815.648C868.74 814.178 868.83 812.624 868.508 811.035C867.653 806.824 864.344 803.741 860.366 802.973C860.376 802.38 860.344 801.769 860.221 801.164C859.317 796.713 854.975 793.827 850.537 794.728C850.436 794.748 850.353 794.791 850.265 794.809C848.664 791.497 845.021 789.545 841.262 790.309C836.825 791.209 833.949 795.548 834.855 800.012L844.48 847.422C845.499 852.441 850.371 855.679 855.375 854.663C859.372 853.852 862.186 850.563 862.664 846.724C863.172 846.713 863.688 846.674 864.203 846.569C869.206 845.554 872.43 840.672 871.411 835.653C871.288 835.048 871.105 834.468 870.874 833.911C874.213 831.658 876.045 827.531 875.193 823.332Z" fill="#FFCECE"/>
<path d="M1246.83 351.776C1251.79 352.868 1256.7 349.733 1257.79 344.773C1258.88 339.815 1255.75 334.909 1250.79 333.818C1245.83 332.726 1240.92 335.86 1239.83 340.818C1239.58 341.934 1239.56 343.045 1239.72 344.112L1226.98 349.874C1225.11 347.207 1222.28 345.198 1218.84 344.441C1217.75 344.201 1216.66 344.116 1215.59 344.142L1212.48 329.414C1214.25 328.366 1215.6 326.62 1216.08 324.451C1217 320.3 1214.37 316.194 1210.22 315.28C1206.07 314.366 1201.96 316.99 1201.05 321.141C1200.13 325.292 1202.76 329.398 1206.91 330.312C1207.27 330.393 1207.64 330.436 1208 330.463L1211.08 345.027C1208.03 346.198 1205.46 348.457 1203.92 351.43L1193.75 348.271C1193.99 343.398 1190.7 338.921 1185.78 337.837C1180.29 336.627 1174.85 340.099 1173.64 345.591C1172.44 351.082 1175.91 356.515 1181.4 357.724C1185.74 358.68 1190.03 356.709 1192.24 353.136L1202.45 356.31C1202.03 360.451 1203.55 364.43 1206.35 367.24L1203.19 371.903L1200.24 376.244C1199.6 375.986 1198.93 375.763 1198.23 375.609C1191.36 374.096 1184.57 378.438 1183.06 385.306C1181.54 392.176 1185.88 398.969 1192.75 400.482C1199.62 401.995 1206.42 397.654 1207.93 390.783C1208.88 386.486 1207.53 382.217 1204.71 379.252L1207.68 374.86L1210.84 370.211C1211.53 370.493 1212.25 370.733 1213.01 370.9C1217.58 371.906 1222.12 370.477 1225.27 367.477L1233.45 373.935C1233.28 374.335 1233.14 374.751 1233.04 375.189C1232.19 379.053 1234.63 382.875 1238.5 383.726C1242.36 384.577 1246.18 382.135 1247.03 378.27C1247.88 374.405 1245.44 370.584 1241.58 369.733C1239.48 369.271 1237.4 369.785 1235.8 370.963L1227.62 364.5C1228.31 363.312 1228.84 361.999 1229.15 360.583C1229.61 358.51 1229.55 356.447 1229.09 354.514L1241.82 348.754C1243.08 350.229 1244.8 351.328 1246.83 351.776Z" fill="#FFCECE"/>
<path d="M1241.59 637.411C1236.66 632.48 1230.16 629.996 1223.7 630C1217.24 629.996 1210.74 632.48 1205.81 637.411C1200.88 642.339 1198.39 648.844 1198.4 655.3C1198.4 659.81 1199.63 664.327 1202.04 668.329L1189.79 680.581C1187.4 682.966 1187.4 686.83 1189.79 689.215C1192.17 691.6 1196.04 691.6 1198.42 689.215L1210.67 676.962C1214.68 679.369 1219.19 680.607 1223.7 680.601C1230.16 680.607 1236.66 678.123 1241.59 673.192C1246.52 668.264 1249.01 661.761 1249 655.3C1249.01 648.844 1246.52 642.339 1241.59 637.411ZM1234.68 666.285C1231.64 669.327 1227.69 670.828 1223.7 670.835C1219.71 670.828 1215.76 669.327 1212.72 666.285C1209.67 663.238 1208.17 659.293 1208.17 655.3C1208.17 651.31 1209.67 647.364 1212.72 644.318C1215.76 641.276 1219.71 639.775 1223.7 639.768C1227.69 639.775 1231.64 641.276 1234.68 644.318C1237.73 647.364 1239.23 651.31 1239.23 655.3C1239.23 659.293 1237.73 663.238 1234.68 666.285Z" fill="#FFCECE"/>
</g>
<defs>
<clipPath id="clip0_1_2">
<rect width="1340" height="1060" fill="white"/>
</clipPath>
</defs>
</svg>
